
<svg width="32px" height="32px" viewBox="0 0 1142.000000 1027.000000" xmlns="http://www.w3.org/2000/svg">

<g transform="translate(0.000000,1027.000000) scale(0.100000,-0.100000)" stroke="none">

<path d="M7760 10013 c-128 -12 -210 -27 -335 -59 -184 -47 -269 -77 -445
-157 -353 -159 -809 -467 -1170 -791 -46 -42 -87 -76 -91 -76 -4 0 -33 24 -65
53 -517 460 -1119 817 -1596 946 -324 87 -526 99 -771 46 -261 -57 -455 -173
-610 -365 -145 -180 -240 -377 -301 -625 -14 -60 -31 -126 -36 -145 -5 -19
-19 -107 -31 -195 -32 -226 -32 -635 -1 -910 30 -259 65 -469 107 -645 7 -30
10 -58 7 -61 -4 -3 -52 -20 -107 -38 -389 -126 -836 -329 -1115 -506 -257
-163 -496 -365 -632 -534 -224 -278 -320 -520 -322 -811 -1 -149 14 -232 65
-379 167 -474 666 -931 1399 -1278 74 -36 155 -73 180 -83 248 -99 311 -123
410 -155 63 -21 116 -39 118 -40 1 -1 -9 -56 -22 -121 -36 -172 -63 -335 -88
-534 -19 -149 -22 -224 -22 -500 0 -286 3 -342 22 -466 85 -542 262 -899 557
-1119 136 -102 253 -154 445 -196 153 -34 393 -33 570 4 195 40 439 112 518
153 15 7 30 14 34 14 11 0 181 83 301 147 113 60 145 79 302 182 191 125 441
315 629 479 l70 61 32 -27 c18 -15 88 -75 156 -134 307 -264 647 -493 963
-649 99 -49 200 -95 225 -103 25 -8 77 -26 115 -39 223 -80 406 -112 630 -112
190 0 302 17 435 66 136 50 306 163 401 267 233 254 364 569 441 1062 20 130
23 181 22 480 0 361 -13 516 -71 835 -14 77 -31 171 -38 208 -9 50 -9 70 -1
72 113 35 282 96 376 136 25 10 95 39 155 64 61 26 180 82 265 124 718 360
1194 834 1308 1301 48 197 52 313 16 485 -91 443 -446 846 -1064 1207 -215
126 -606 306 -811 372 -24 8 -96 32 -159 54 -134 46 -126 29 -91 202 73 365
96 597 96 975 0 387 -14 518 -90 825 -112 451 -380 807 -708 942 -171 71 -407
108 -577 91z m383 -237 c297 -89 501 -293 640 -641 69 -174 132 -464 147 -680
10 -143 4 -609 -9 -715 -29 -241 -88 -591 -126 -750 -26 -104 -23 -114 28
-126 54 -11 386 -124 507 -171 931 -364 1513 -853 1635 -1373 20 -86 20 -284
-1 -370 -52 -221 -162 -406 -368 -619 -353 -362 -915 -675 -1643 -913 -87 -29
-153 -56 -153 -63 0 -6 14 -77 31 -156 47 -222 88 -473 106 -652 24 -226 23
-652 0 -842 -43 -340 -140 -634 -277 -843 -55 -83 -170 -204 -245 -257 -398
-278 -1007 -200 -1701 218 -284 172 -566 385 -849 644 l-131 120 -79 -74
c-172 -160 -446 -381 -625 -505 -686 -474 -1336 -659 -1795 -511 -90 28 -172
71 -252 132 -171 129 -293 314 -382 579 -84 248 -114 464 -114 822 -1 403 35
702 140 1170 33 147 32 141 3 151 -143 43 -397 130 -485 165 -829 325 -1400
764 -1617 1241 -111 246 -108 528 8 773 145 306 460 608 895 858 296 170 683
332 1094 457 66 21 124 41 129 45 4 4 -6 70 -23 147 -63 284 -94 469 -123 718
-17 149 -17 749 0 870 50 351 145 617 292 814 179 239 418 356 743 360 453 6
1005 -222 1597 -662 175 -130 316 -246 463 -381 l119 -109 61 60 c395 383 882
726 1297 914 190 85 417 153 615 183 17 2 104 3 195 1 144 -2 176 -6 253 -29z"/>
<path d="M7675 9354 c-427 -77 -1004 -423 -1548 -929 l-97 -90 22 -25 c244
-268 529 -620 769 -949 l105 -145 250 -28 c316 -35 529 -68 912 -144 123 -24
231 -44 241 -44 13 0 22 21 39 94 137 591 166 1233 75 1646 -76 348 -218 555
-420 611 -82 23 -230 24 -348 3z m330 -211 c137 -72 240 -319 276 -663 18
-170 7 -645 -20 -835 -25 -182 -62 -398 -70 -406 -3 -3 -35 -1 -71 6 -407 77
-763 131 -975 150 -105 9 -109 11 -145 62 -137 194 -402 533 -565 723 -129
151 -120 137 -104 157 19 23 278 237 374 309 338 255 776 476 1015 514 97 15
239 7 285 -17z"/>
<path d="M3405 9346 c-161 -42 -274 -155 -355 -355 -34 -84 -76 -238 -90 -336
-6 -38 -16 -101 -21 -140 -6 -38 -11 -178 -11 -310 0 -207 6 -308 26 -450 2
-16 7 -59 11 -95 13 -131 113 -641 128 -656 3 -3 83 11 179 30 184 38 421 80
503 91 28 4 86 13 130 21 97 17 505 64 557 64 30 0 42 6 62 33 14 17 88 117
166 221 220 293 433 554 638 780 40 43 72 83 72 90 0 15 -142 145 -290 267
-480 394 -904 634 -1290 729 -108 27 -340 36 -415 16z m382 -214 c289 -78 648
-268 988 -523 117 -88 345 -278 345 -288 0 -5 -26 -37 -58 -72 -57 -64 -234
-276 -348 -419 -33 -41 -118 -153 -189 -248 -79 -106 -137 -174 -149 -177 -12
-2 -55 -6 -96 -10 -191 -14 -595 -75 -902 -136 -142 -28 -133 -31 -152 54 -53
243 -93 608 -95 869 -3 325 39 585 123 763 51 109 93 159 160 191 48 23 59 24
176 20 77 -3 152 -12 197 -24z"/>
<path d="M5692 7985 c-11 -14 -54 -63 -96 -109 -89 -98 -328 -382 -385 -459
-21 -29 -55 -72 -75 -97 -20 -25 -36 -47 -36 -50 0 -3 279 -5 620 -5 341 0
620 1 620 3 0 3 -168 217 -253 322 -108 132 -360 420 -368 420 -4 0 -16 -11
-27 -25z m129 -391 c50 -58 89 -107 87 -110 -3 -2 -91 -3 -196 -2 l-190 3 96
111 c54 61 100 109 104 107 4 -2 48 -51 99 -109z"/>
<path d="M5170 6820 c-311 -16 -408 -23 -418 -29 -10 -6 -192 -281 -279 -421
-215 -348 -396 -671 -573 -1021 l-113 -224 87 -175 c182 -361 369 -696 584
-1040 117 -188 289 -447 302 -455 16 -10 379 -25 735 -31 334 -6 688 2 1068
23 l119 6 57 86 c108 161 313 494 456 741 72 124 122 214 240 435 100 186 205
400 205 416 0 30 -212 433 -411 781 -197 344 -511 843 -550 874 -8 7 -95 17
-194 24 -215 14 -1110 21 -1315 10z m975 -201 c171 -6 336 -14 368 -17 l59 -7
109 -170 c213 -330 463 -762 653 -1127 l87 -167 -72 -143 c-39 -79 -88 -172
-109 -208 -20 -36 -58 -105 -85 -154 -114 -214 -373 -651 -517 -872 l-66 -102
-148 -8 c-190 -11 -1315 -12 -1454 -1 l-106 9 -110 171 c-269 416 -418 674
-667 1156 l-75 145 87 170 c112 218 181 347 249 466 30 52 74 130 98 172 55
99 230 381 334 542 l81 124 102 7 c343 23 773 29 1182 14z"/>
<path d="M5470 6245 c-395 -87 -712 -372 -835 -748 -50 -155 -70 -323 -55
-456 35 -296 140 -521 333 -712 448 -443 1163 -441 1609 4 315 314 414 791
254 1218 -53 141 -184 333 -291 427 -107 94 -263 186 -390 231 -188 65 -430
79 -625 36z m485 -204 c265 -69 492 -261 611 -517 64 -136 79 -210 79 -389 0
-186 -15 -256 -90 -410 -98 -202 -277 -372 -477 -452 -125 -51 -188 -64 -328
-70 -113 -4 -150 -1 -225 16 -353 79 -623 335 -717 676 -31 114 -31 364 0 477
97 355 378 616 735 684 102 19 309 12 412 -15z"/>
<path d="M7256 6732 c-3 -5 2 -20 12 -33 65 -86 377 -619 557 -952 26 -48 52
-86 57 -85 19 7 199 470 295 757 40 119 43 136 29 146 -30 22 -504 111 -796
149 -64 8 -123 18 -132 21 -9 4 -19 2 -22 -3z m592 -291 c56 -10 105 -20 108
-23 3 -3 -9 -46 -27 -94 -17 -49 -39 -111 -49 -138 -9 -28 -21 -51 -26 -53 -5
-2 -41 54 -81 125 -40 70 -84 147 -99 171 l-27 44 49 -7 c27 -3 95 -15 152
-25z"/>
<path d="M4085 6723 c-275 -37 -845 -140 -861 -155 -20 -20 303 -898 330 -898
6 0 27 30 46 68 19 37 51 96 71 132 20 36 55 101 79 145 71 131 287 496 380
640 21 33 39 63 39 68 1 7 -29 7 -84 0z m-321 -275 c-9 -18 -45 -80 -80 -139
-34 -58 -71 -122 -80 -142 -21 -44 -30 -46 -39 -9 -3 15 -24 78 -47 140 -22
62 -38 116 -35 119 4 3 68 16 144 30 75 13 139 26 142 28 12 13 10 2 -5 -27z"/>
<path d="M2535 6386 c-451 -151 -753 -292 -1058 -493 -349 -230 -552 -469
-587 -688 -37 -232 122 -487 485 -777 242 -194 713 -434 1125 -573 246 -83
262 -87 272 -77 5 5 43 108 83 228 123 363 331 890 426 1076 l20 40 -94 216
c-153 349 -271 657 -379 987 -28 84 -48 131 -58 132 -8 2 -114 -30 -235 -71z
m161 -302 c82 -239 171 -469 266 -694 22 -52 49 -115 60 -140 10 -25 27 -62
36 -84 l18 -39 -73 -171 c-41 -94 -85 -200 -99 -236 -14 -36 -37 -92 -51 -125
-14 -33 -36 -89 -48 -125 -13 -36 -35 -96 -50 -135 -14 -38 -45 -125 -67 -192
-49 -146 -11 -142 -297 -33 -428 163 -804 381 -1039 605 -178 170 -262 306
-262 427 0 202 280 479 735 726 160 86 446 216 570 257 22 8 85 30 140 49 55
19 105 34 110 32 6 -1 28 -56 51 -122z"/>
<path d="M8632 6393 c-11 -32 -39 -114 -62 -183 -73 -216 -220 -597 -300 -775
-10 -22 -33 -76 -53 -120 -19 -44 -45 -102 -57 -129 -19 -40 -21 -53 -13 -75
6 -14 56 -125 111 -246 122 -271 249 -587 337 -845 37 -107 69 -201 71 -207 6
-23 46 -14 235 51 610 209 1074 469 1369 765 200 201 299 403 273 555 -66 374
-569 781 -1348 1089 -145 58 -455 162 -510 173 -31 6 -32 4 -53 -53z m224
-212 c102 -34 177 -61 224 -81 25 -10 81 -33 125 -50 356 -142 700 -350 902
-544 171 -164 240 -281 231 -389 -15 -186 -289 -468 -668 -689 -166 -97 -531
-270 -650 -308 -14 -5 -69 -24 -122 -44 -97 -34 -97 -34 -103 -13 -41 140
-216 581 -345 870 l-90 203 51 114 c59 131 114 264 165 395 19 50 43 110 54
135 16 38 135 369 146 408 5 16 11 15 80 -7z"/>
<path d="M7840 4532 c-19 -37 -51 -96 -71 -132 -20 -36 -55 -101 -79 -145 -70
-132 -303 -526 -382 -649 -47 -73 -48 -86 -5 -86 86 0 717 107 893 151 55 14
58 -7 -36 254 -112 312 -259 675 -275 675 -5 0 -26 -30 -45 -68z m60 -479 c31
-86 79 -217 80 -219 1 -6 -322 -65 -327 -60 -4 4 201 365 208 366 3 0 21 -39
39 -87z"/>
<path d="M3541 4568 c-13 -34 -61 -150 -71 -173 -54 -118 -265 -723 -256 -733
17 -17 569 -110 889 -150 37 -5 70 -5 72 -1 3 3 -37 74 -88 155 -150 239 -323
540 -471 817 -32 59 -60 107 -62 107 -2 0 -8 -10 -13 -22z m109 -565 c36 -64
82 -143 103 -176 21 -33 36 -61 33 -64 -5 -5 -296 44 -304 51 -2 3 0 22 6 43
18 66 87 262 92 262 3 0 34 -52 70 -116z"/>
<path d="M8245 3230 c-261 -61 -678 -127 -1110 -175 -82 -9 -163 -19 -180 -21
-24 -4 -40 -20 -85 -86 -151 -225 -468 -632 -703 -901 -62 -71 -114 -134 -116
-140 -2 -6 16 -29 41 -51 477 -426 725 -606 1073 -776 259 -127 456 -188 645
-197 130 -7 204 6 297 52 188 92 320 353 385 760 32 202 32 622 0 870 -34 260
-77 505 -113 643 -13 49 -15 49 -134 22z m-16 -277 c104 -529 111 -1139 16
-1463 -34 -114 -107 -262 -158 -317 -69 -75 -103 -88 -237 -87 -84 1 -138 7
-202 23 -286 73 -625 252 -958 505 -114 86 -360 295 -360 305 0 3 33 44 74 91
124 144 329 405 488 622 149 204 152 207 192 212 23 3 106 13 186 22 234 26
687 97 825 128 33 8 74 14 91 15 30 1 32 -1 43 -56z"/>
<path d="M3052 3088 c-39 -183 -79 -403 -88 -493 -3 -38 -8 -79 -10 -90 -37
-191 -37 -706 0 -882 2 -11 8 -43 11 -70 23 -164 115 -393 197 -489 147 -172
339 -217 652 -153 385 80 892 364 1350 758 139 119 256 226 256 235 0 3 -26
34 -59 68 -200 213 -607 717 -796 985 l-49 71 -91 6 c-262 19 -874 105 -1151
162 -71 15 -143 29 -160 31 l-31 5 -31 -144z m273 -107 c201 -42 752 -120 965
-136 52 -4 102 -11 110 -15 8 -5 40 -43 70 -85 131 -184 359 -469 591 -741
l78 -91 -87 -75 c-439 -377 -891 -637 -1259 -724 -77 -18 -131 -24 -214 -24
-98 0 -116 3 -164 26 -181 85 -285 422 -285 920 0 250 34 599 81 839 20 104
29 126 47 121 9 -2 40 -9 67 -15z"/>
<path d="M5110 2976 c0 -29 600 -746 625 -746 3 0 74 80 192 216 130 150 413
514 413 532 0 4 -277 7 -615 7 -338 0 -615 -4 -615 -9z m818 -208 c-2 -3 -46
-59 -98 -123 l-95 -117 -49 54 c-53 59 -156 183 -156 189 0 2 90 4 200 4 110
0 199 -3 198 -7z"/>
</g>
</svg>
